<svg id="Layer_1" data-name="Layer 1" xmlns="http://www.w3.org/2000/svg" viewBox="0 0 360 360"><defs><style>.cls-1{fill:#ed2224;}.cls-2{fill:#010101;}.cls-3{fill:#231f20;}</style></defs><path class="cls-1" d="M316.8,219.06a11.56,11.56,0,0,0-.71,3.89H43.24c0-1.3,0-2.37,0-3.89Z"/><path class="cls-2" d="M151.26,179.72a4.28,4.28,0,1,1-7.2-4.63c1.28-2,20.69-32.92,20.69-32.92S152.54,177.74,151.26,179.72Z"/><path class="cls-3" d="M127.09,184.82h11l-19,25.05-.75.86c-.32.35-.67.72-1,1.09a8.34,8.34,0,0,1-1.15,1,1.89,1.89,0,0,1-1,.4h-8.83a1.26,1.26,0,0,1-1-.59,6.45,6.45,0,0,1-.75-1.44,14.45,14.45,0,0,1-.53-1.8c-.14-.62-.27-1.15-.38-1.58l-3.32-23h9.32l2.57,19.11Z"/><path class="cls-3" d="M140.69,184.82H151l-10.33,28.37H130.36Z"/><path class="cls-3" d="M184.58,184.82a15.15,15.15,0,0,1-1.25,2c-.59.81-1.22,1.6-1.88,2.39a21.25,21.25,0,0,1-1.93,2c-.62.57-1.08.86-1.36.86H161.67l-3,8.4,5.09-4.92h12.36l-7.65,7.22H157.77L156.59,206h20.5l-.27.46c-.14.23-.29.47-.43.72s-.28.48-.43.7a4.44,4.44,0,0,1-.26.37,16.16,16.16,0,0,1-1.31,1.5c-.56.57-1.1,1.12-1.64,1.63s-1,1-1.42,1.31a5,5,0,0,1-.66.54H143.74l10.33-28.37Z"/><path class="cls-3" d="M181.37,200.18v-.11a14,14,0,0,1,1.12-5.29,17.42,17.42,0,0,1,3.06-4.93,16.77,16.77,0,0,1,4.44-3.61,10.69,10.69,0,0,1,5.35-1.42h22.11c-1,1.36-2.08,2.63-3.13,3.83a37,37,0,0,1-3.45,3.4H197a3.51,3.51,0,0,0-2,.66,7.74,7.74,0,0,0-1.79,1.74,10.68,10.68,0,0,0-1.34,2.39,6.74,6.74,0,0,0-.53,2.59,7.31,7.31,0,0,0,1.33,4.77A5.15,5.15,0,0,0,197,206h12.79q-1.23,1.83-2.78,3.72a23,23,0,0,1-3.59,3.51h-4.28a35.58,35.58,0,0,1-6.48-.59,17.42,17.42,0,0,1-5.67-2.06,11.27,11.27,0,0,1-4-4A12.09,12.09,0,0,1,181.37,200.18Z"/><path class="cls-3" d="M216,196.7l4.23-11.88h10.11c-1.24,3.64-2.21,6.47-2.89,8.48s-1.17,3.53-1.49,4.53-.52,1.63-.59,1.9a2.62,2.62,0,0,0-.11.56c-.07.39-.13.73-.19,1a4.17,4.17,0,0,0-.08.69,3.94,3.94,0,0,0,1.05,2.92,3.17,3.17,0,0,0,2.27,1h2.62a5.5,5.5,0,0,0,2.39-.53,8.13,8.13,0,0,0,1.95-1.34,11.93,11.93,0,0,0,1.5-1.71,13.16,13.16,0,0,0,1-1.66l5.78-15.9h10.17L248.87,198a62.29,62.29,0,0,1-2.73,6.5,20.06,20.06,0,0,1-3.16,4.74,11.72,11.72,0,0,1-4.07,2.92,13.88,13.88,0,0,1-5.51,1h-6.26a35.74,35.74,0,0,1-6.32-.46,11,11,0,0,1-4-1.41,5.45,5.45,0,0,1-2.14-2.49,9.41,9.41,0,0,1-.65-3.67,11.81,11.81,0,0,1,.06-1.18c0-.39.08-.84.16-1.34a19.69,19.69,0,0,1,.75-2.75C215.31,199,215.63,197.92,216,196.7Z"/><path class="cls-3" d="M246.35,213.19l10.33-28.37h10.23L259.2,206h17a5,5,0,0,1-.62.91c-.45.61-1,1.31-1.68,2.12s-1.4,1.6-2.15,2.41a17.81,17.81,0,0,1-1.87,1.79Z"/><path class="cls-3" d="M314.12,203.61a20.91,20.91,0,0,1-4.5,4.9,22.45,22.45,0,0,1-6.05,3.39,19.5,19.5,0,0,1-7,1.29h-7.12a37.52,37.52,0,0,1-6.2-.48,15.21,15.21,0,0,1-4.93-1.64,8.57,8.57,0,0,1-3.25-3.13,9.55,9.55,0,0,1-1.18-5c0-.43,0-.88.06-1.34s.1-.95.18-1.45a14.19,14.19,0,0,1,2.19-5.65,21.21,21.21,0,0,1,4.38-4.92,22.41,22.41,0,0,1,5.77-3.48,16.64,16.64,0,0,1,6.39-1.31h9.06a31.29,31.29,0,0,1,6.2.56,15,15,0,0,1,4.68,1.74,8.07,8.07,0,0,1,3,3.08,9.32,9.32,0,0,1,1,4.52c0,.5,0,1-.07,1.5a12.83,12.83,0,0,1-.24,1.61A15.48,15.48,0,0,1,314.12,203.61Zm-28.46-1.77a5.8,5.8,0,0,0,1.16,2.09,6.14,6.14,0,0,0,1.85,1.47,4.52,4.52,0,0,0,2.16.56h5.05a6.17,6.17,0,0,0,3-.91,13.68,13.68,0,0,0,3-2.27,14,14,0,0,0,2.28-3,6.18,6.18,0,0,0,.91-3.05,8.38,8.38,0,0,0-.18-1.72,3.53,3.53,0,0,0-.73-1.52,3.72,3.72,0,0,0-1.49-1.07,6.32,6.32,0,0,0-2.46-.4h-6a6.25,6.25,0,0,0-2.71.69,13.55,13.55,0,0,0-2.71,1.77,12.29,12.29,0,0,0-2.19,2.38,6.1,6.1,0,0,0-1.09,2.54A4.91,4.91,0,0,0,285.66,201.84Z"/><path class="cls-1" d="M145.93,98.65l6.15,34.83a84.26,84.26,0,0,1,12-1.07V97.05A118.72,118.72,0,0,0,145.93,98.65Zm-24.45,6.69a120.21,120.21,0,0,0-16.39,7.82l17.69,30.63a83.7,83.7,0,0,1,10.78-5.22ZM84.56,127.93a120.59,120.59,0,0,0-12.63,12.94L99,163.6a83.66,83.66,0,0,1,8.26-8.58Zm-26.78,33.8a120.67,120.67,0,0,0-7.33,16.4l33.24,12.09a84.54,84.54,0,0,1,4.74-10.8Zm21.49,46.9-34.85-6.15a120.21,120.21,0,0,0-1.22,17.18c0,.21,0,.42,0,.62H78.59c0-.2,0-.41,0-.62A87.22,87.22,0,0,1,79.27,208.63Zm-30-27.09A118,118,0,0,0,45,198.92l34.84,6.14a88.35,88.35,0,0,1,2.73-11.42Zm20.39-37.88a121.23,121.23,0,0,0-10.14,14.92l30.64,17.68a84.7,84.7,0,0,1,6.6-9.86ZM102,115a121.12,121.12,0,0,0-14.72,10.58L110,152.65a84.54,84.54,0,0,1,9.68-7Zm40.38-15.71a117.17,117.17,0,0,0-17.53,4.8l12.09,33.22a86.19,86.19,0,0,1,11.59-3.2Z"/></svg>